<svg xmlns="http://www.w3.org/2000/svg" viewBox="0 0 24 24" class="design-iconfont">
    <path
        d="M1.33333333,12.8756353 C1.33333333,11.9893924 2.05040569,11.2804122 2.94676384,11.2804122 C4.02238417,11.2804122 4.73948013,11.9893924 4.73948013,12.8756353 C4.73948013,13.9391173 4.02240777,14.6481209 2.94676384,14.6481209 C2.05040569,14.6481209 1.33333333,13.9391407 1.33333333,12.8756353 Z M3.48459761,6.67195878 C3.48459761,5.43121415 4.38095575,4.36773209 5.63586188,4.36773209 C6.890768,4.36773209 7.96638834,5.43121415 7.96638834,6.67195878 C7.96638834,7.91270341 6.890768,8.79894624 5.63586188,8.79894624 C4.38095575,8.79894624 3.48459761,7.91270341 3.48459761,6.67195878 Z M4.38095575,19.2565976 C4.38095575,18.5476174 4.91876592,18.015853 5.63586188,18.015853 C6.35295783,18.015853 6.890768,18.547594 6.890768,19.2565976 C6.890768,19.9655779 6.35295783,20.4973423 5.63586188,20.4973423 C4.91876592,20.4973423 4.38095575,19.9656012 4.38095575,19.2565976 L4.38095575,19.2565976 Z M10.6554628,21.9153261 C10.6554628,21.0290833 11.1932729,20.4973189 12.0896547,20.4973189 C12.9860364,20.4973189 13.5238466,21.02906 13.5238466,21.9153261 C13.5238466,22.801569 12.9860364,23.3333333 12.0896547,23.3333333 C11.1932965,23.3333333 10.6554628,22.8015923 10.6554628,21.9153261 L10.6554628,21.9153261 Z M17.6470658,19.2565976 C17.6470658,18.7248566 18.0056137,18.3703548 18.5434239,18.3703548 C19.0812341,18.3703548 19.4397821,18.7248566 19.4397821,19.2565976 C19.4397821,19.7883387 19.0812341,20.1428405 18.5434239,20.1428405 C18.0056137,20.1428405 17.6470658,19.7883387 17.6470658,19.2565976 Z M19.6190442,12.8756353 C19.6190442,12.166655 20.3361166,11.4576281 21.2324748,11.4576281 C21.9495471,11.4576281 22.6666667,12.1666083 22.6666667,12.8756353 C22.6666667,13.7618781 21.9495943,14.4708584 21.2324748,14.4708584 C20.3361166,14.4708584 19.6190442,13.7618781 19.6190442,12.8756353 Z M15.4958015,6.67195878 C15.4958015,4.89947312 16.9299934,3.65872849 18.5434239,3.65872849 C20.1568544,3.65872849 21.5910463,4.89947312 21.5910463,6.67195878 C21.5910463,8.26718188 20.1568544,9.68518907 18.5434239,9.68518907 C16.9299934,9.68518907 15.4958015,8.26718188 15.4958015,6.67195878 Z M9.04203228,4.01323029 C9.04203228,2.4180072 10.4762242,1 12.0896547,1 C13.7030852,1 15.1372771,2.4180072 15.1372771,4.01323029 C15.1372771,5.60845339 13.7030852,7.02646058 12.0896547,7.02646058 C10.4762242,7.02646058 9.04203228,5.60845339 9.04203228,4.01323029 L9.04203228,4.01323029 Z"
        fill="#000000" fill-rule="nonzero" />
</svg>
